<svg width="358" height="137" viewBox="0 0 358 137" fill="none" xmlns="http://www.w3.org/2000/svg">
<g clip-path="url(#clip0_1_2)">
<path d="M29.0179 136.618C18.7768 136.533 8.27858 134.573 0 130.226V116.165H19.2889V121.875C22.2755 122.812 25.6884 123.323 29.0179 123.323C32.3474 123.323 35.6746 122.898 38.7469 121.875V114.12L0.0857182 106.794V79.4399C8.27858 75.093 18.4339 73.048 29.1036 73.048C39.7733 73.048 49.5857 75.0074 57.95 79.4399V93.5009H38.6612V87.7913C35.6746 86.7688 32.7737 86.4287 29.0179 86.4287C25.5192 86.4287 22.6161 86.7688 19.3746 87.7913V96.0572L58.0358 103.386V130.229C49.8406 134.49 39.259 136.621 29.0179 136.621" fill="#D76D27"/>
<path d="M108.382 136.107H88.7522C78.3397 126.479 68.6942 114.037 68.6942 93.7554V74.1561H88.0687V93.5842C88.0687 110.373 93.7013 117.699 98.567 123.749C103.433 117.785 108.979 110.542 108.979 93.5842V74.1561H128.44V93.7554C128.44 113.951 118.88 126.479 108.382 136.107Z" fill="#D76D27"/>
<path d="M158.987 74.1561H139.529V135.51H158.987V74.1561Z" fill="#D76D27"/>
<path d="M154.442 70.3227H139.847L149.321 54.9825H164.768L154.442 70.3227Z" fill="#D76D27"/>
<path d="M205.241 89.4963V135.51H185.783V89.4963H168.373V74.1561H222.653V89.4963H205.241Z" fill="#D76D27"/>
<path d="M268.052 135.512V117.021H249.275V135.512H230.072V80.2935C237.327 75.6921 248.251 73.0502 258.747 73.0502C269.243 73.0502 279.999 75.6065 287.253 80.2935V135.512H268.05H268.052ZM268.052 88.3026C265.492 87.1089 262.162 86.512 258.664 86.512C255.165 86.512 251.921 87.1089 249.275 88.3026V103.472H268.052V88.3026Z" fill="#D76D27"/>
<path d="M338.542 135.51V89.154C335.896 87.9603 332.824 87.1945 328.132 87.1945C323.44 87.1945 320.451 87.8769 317.633 89.154V135.51H298.259V80.6314C305.599 75.9466 316.693 73.048 328.129 73.048C339.566 73.048 350.488 75.8611 358 80.6314V135.51H338.542Z" fill="#D76D27"/>
<path d="M85.1272 63.0591C75.9103 63.0591 66.7768 60.5884 59.0959 54.7077V8.35143C66.6076 2.55633 75.7388 0 85.1272 0C94.5156 0 103.561 2.29957 111.158 8.35143V19.1736H103.478V12.5271C98.6121 9.11945 92.1268 7.3289 85.1295 7.3289C78.1322 7.3289 71.8995 8.94603 66.779 12.5271V50.4487C71.7304 53.9419 78.2156 55.7325 85.1295 55.7325C92.0433 55.7325 98.4429 54.0275 103.478 50.4487V36.6445H87.3469V29.4868H111.158V54.71C103.733 60.4195 94.4299 63.0614 85.1272 63.0614" fill="#D76D27"/>
<path d="M181.141 9.62847V53.3451C176.426 57.4014 171.062 60.2213 165.107 61.7416L173.331 49.5072C173.374 49.4802 173.41 49.4554 173.455 49.4194V13.5452C168.59 9.7163 162.109 7.32664 154.255 7.32664C146.4 7.32664 140.172 9.62847 135.054 13.5452V49.4216C137.693 51.5117 140.77 53.1717 144.255 54.2595L140.235 60.7753C135.609 59.1604 131.334 56.683 127.375 53.3451V9.62847C134.875 3.23426 143.671 0.00225067 154.252 0.00225067C164.834 0.00225067 173.541 3.06759 181.141 9.62847Z" fill="#D76D27"/>
<path d="M198.627 62.2055V0.85136H206.308V54.9622H240.873V62.2055H198.627Z" fill="#D76D27"/>
<path d="M294.636 19.1736V11.5902C289.942 8.5226 284.395 7.3289 277.993 7.3289C271.591 7.3289 266.385 8.35143 261.35 11.5902V29.0588H289.087V36.2165H261.35V62.2078H253.67V7.07214C261.181 2.21398 268.519 0 277.993 0C287.467 0 294.72 2.04506 302.317 7.07214V19.1736H294.636Z" fill="#D76D27"/>
</g>
<defs>
<clipPath id="clip0_1_2">
<rect width="358" height="136.618" fill="white"/>
</clipPath>
</defs>
</svg>
